<svg xmlns="http://www.w3.org/2000/svg" viewBox="0 0 84.21 90.91"><defs><style>.cls-1{fill:none;stroke:#27306b;stroke-linecap:round;stroke-linejoin:round;stroke-width:1.16px;}.cls-2{fill:#d385b8;}</style></defs><g id="Layer_2" data-name="Layer 2"><g id="Layer_1-2" data-name="Layer 1"><line class="cls-1" x1="66.32" y1="22.91" x2="44.54" y2="35.48"/><polyline class="cls-1" points="32.97 35.45 11.24 22.91 18.46 18.79"/><polyline class="cls-1" points="45.56 66.69 38.78 70.6 11.24 54.7 11.24 35.24"/><line class="cls-1" x1="66.32" y1="35.65" x2="66.32" y2="47.51"/><line class="cls-1" x1="38.78" y1="45.64" x2="38.78" y2="59.93"/><polyline class="cls-1" points="38.78 38.8 49.45 44.96 76.98 29.06 66.32 22.91 58.98 18.66"/><polyline class="cls-1" points="11.24 22.91 0.58 29.06 28.12 44.96 38.78 38.8"/><path class="cls-1" d="M19.64,27.75a20.33,20.33,0,1,1,38.28,0"/><circle class="cls-1" cx="38.78" cy="20.9" r="4.94"/><path class="cls-1" d="M49.47,20.9A10.69,10.69,0,1,1,38.78,10.21,10.69,10.69,0,0,1,49.47,20.9Z"/><line class="cls-1" x1="34.49" y1="11.11" x2="30.73" y2="2.24"/><line class="cls-1" x1="42.97" y1="11.11" x2="46.73" y2="2.24"/><path class="cls-1" d="M66.14,55.37a17.47,17.47,0,1,1-3.82.42"/><path class="cls-1" d="M77.32,54.8A21.43,21.43,0,0,1,82,58.72"/><path class="cls-1" d="M62.32,55.75V52.38A1.38,1.38,0,0,1,63.7,51h4.88A1.38,1.38,0,0,1,70,52.38v3.37"/><circle class="cls-1" cx="66.14" cy="72.85" r="12.68"/><line class="cls-1" x1="79.82" y1="56.61" x2="77.32" y2="59.41"/><path class="cls-1" d="M54.59,54.8a21.43,21.43,0,0,0-4.67,3.92"/><line class="cls-1" x1="52.09" y1="56.61" x2="54.59" y2="59.41"/><line class="cls-1" x1="66.14" y1="63.22" x2="66.14" y2="65.72"/><line class="cls-1" x1="61.33" y1="64.51" x2="62.58" y2="66.68"/><line class="cls-1" x1="57.8" y1="68.03" x2="59.97" y2="69.29"/><line class="cls-1" x1="56.51" y1="72.85" x2="59.01" y2="72.85"/><line class="cls-1" x1="57.8" y1="77.67" x2="59.97" y2="76.42"/><line class="cls-1" x1="61.33" y1="81.2" x2="62.58" y2="79.03"/><line class="cls-1" x1="66.14" y1="82.49" x2="66.14" y2="79.98"/><line class="cls-1" x1="70.96" y1="81.2" x2="69.71" y2="79.03"/><line class="cls-1" x1="74.49" y1="77.67" x2="72.32" y2="76.42"/><line class="cls-1" x1="75.78" y1="72.85" x2="73.27" y2="72.85"/><line class="cls-1" x1="74.49" y1="68.03" x2="72.32" y2="69.29"/><line class="cls-1" x1="70.96" y1="64.51" x2="66.36" y2="72.85"/><polygon class="cls-2" points="69.18 29.13 65.92 27.25 46.26 38.86 49.29 40.61 69.18 29.13"/><polygon class="cls-2" points="8.39 29.13 11.64 27.25 31.31 38.86 28.27 40.61 8.39 29.13"/></g></g></svg>