<svg xmlns="http://www.w3.org/2000/svg" viewBox="0 0 85.01 75.71"><defs><style>.cls-1{fill:none;stroke:#27306b;stroke-miterlimit:10;}.cls-2{fill:#d385b8;}</style></defs><g id="Layer_2" data-name="Layer 2"><g id="Layer_1-2" data-name="Layer 1"><path class="cls-1" d="M45.07,75.21H80.18a4.33,4.33,0,0,0,4.33-4.33V30a3.18,3.18,0,0,0-3.18-3.18H28.47A3.18,3.18,0,0,0,25.29,30v40.9a4.33,4.33,0,0,0,4.33,4.33Z"/><path class="cls-1" d="M33.25,33.19a.56.56,0,1,0-.56.56A.56.56,0,0,0,33.25,33.19Z"/><circle class="cls-1" cx="39.04" cy="33.19" r="0.56"/><path class="cls-1" d="M46,33.19a.56.56,0,1,0-.56.56A.56.56,0,0,0,46,33.19Z"/><line class="cls-1" x1="25.29" y1="39.47" x2="84.51" y2="39.47"/><polyline class="cls-1" points="63.93 61.87 69.23 56.58 63.93 51.27"/><polyline class="cls-1" points="45.86 61.87 40.56 56.58 45.86 51.27"/><line class="cls-1" x1="58.8" y1="48.57" x2="51" y2="64.42"/><path class="cls-1" d="M25.6,41A14.18,14.18,0,1,1,39.78,26.8"/><path class="cls-1" d="M46.32,26.83v-.1a11.73,11.73,0,0,1,3.22-8.19l1-1.07L46.17,9.83l-1.45.36A11.73,11.73,0,0,1,36,8.88l-.09-.05a11.77,11.77,0,0,1-5.51-6.9L30,.5H21.19l-.42,1.43a11.73,11.73,0,0,1-5.49,6.9l0,0,0,0a11.73,11.73,0,0,1-8.72,1.32L5,9.83.62,17.47l1,1.07a11.7,11.7,0,0,1,3.22,8.22v.11a11.68,11.68,0,0,1-3.22,8.18l-1,1.07L5,43.76l1.45-.36a11.73,11.73,0,0,1,8.7,1.31l.09,0a11.77,11.77,0,0,1,5.51,6.9l.41,1.43h4.1"/><path class="cls-2" d="M15,26.8A10.5,10.5,0,0,0,17.86,34c0-.25,0-.5,0-.76A15.41,15.41,0,0,1,31.28,17.91,10.55,10.55,0,0,0,15,26.8Z"/></g></g></svg>