<svg xmlns="http://www.w3.org/2000/svg" viewBox="0 0 86.99 78.11"><defs><style>.cls-1{fill:none;stroke:#27306b;stroke-miterlimit:10;}.cls-2{fill:#d385b8;}</style></defs><g id="Layer_2" data-name="Layer 2"><g id="Layer_1-2" data-name="Layer 1"><path class="cls-1" d="M86.49,48.91v3.6a3,3,0,0,1-2.24,2.91h0a66.24,66.24,0,0,1-34.18,0h0a3,3,0,0,1-2.24-2.91v-3.6"/><path class="cls-1" d="M86.49,58.88v3.6a3,3,0,0,1-2.24,2.91h0a66.24,66.24,0,0,1-34.18,0h0a3,3,0,0,1-2.24-2.91v-3.6"/><path class="cls-1" d="M86.49,68.85v3.6a3,3,0,0,1-2.24,2.92h0a66.46,66.46,0,0,1-34.18,0h0a3,3,0,0,1-2.24-2.92v-3.6"/><path class="cls-1" d="M75.76,37.46c6.36.9,10.73,2.76,10.73,4.9,0,3-8.66,5.48-19.33,5.48s-19.33-2.45-19.33-5.48c0-2.14,4.37-4,10.73-4.9"/><path class="cls-1" d="M68.11,19.43V5.48a5,5,0,0,0-5-5H58.46"/><path class="cls-1" d="M58.46.5H6.28a5,5,0,0,0-5,5V45.13a5,5,0,0,0,5,5H43.11"/><polyline class="cls-1" points="17.66 50.1 14.63 57.78 34.71 57.78 43.83 57.78"/><path class="cls-1" d="M45.33,77.61H2.87A2.37,2.37,0,0,1,.8,74.09L6.61,63.6H43.83"/><path class="cls-1" d="M71.76,36.89a4.6,4.6,0,1,1-4.6-4.6A4.6,4.6,0,0,1,71.76,36.89Z"/><path class="cls-1" d="M48.71,24a4.6,4.6,0,1,1-4.6-4.59A4.6,4.6,0,0,1,48.71,24Z"/><path class="cls-1" d="M27.79,36.15a4.6,4.6,0,1,1-4.6-4.6A4.6,4.6,0,0,1,27.79,36.15Z"/><path class="cls-1" d="M22.92,15.76a4.6,4.6,0,1,1-4.6-4.6A4.6,4.6,0,0,1,22.92,15.76Z"/><polyline class="cls-1" points="67.16 32.29 67.16 24.02 48.7 24.02"/><line class="cls-1" x1="22.66" y1="17.27" x2="39.72" y2="22.65"/><line class="cls-1" x1="27.25" y1="33.76" x2="40.07" y2="26.22"/><polygon class="cls-2" points="5.65 73.6 29.73 73.6 35.72 67.61 8.97 67.61 5.65 73.6"/></g></g></svg>